<svg xmlns="http://www.w3.org/2000/svg" xmlns:xlink="http://www.w3.org/1999/xlink" viewBox="0 0 1478.88 1808.64">
  <g id="_3rd_color" class="svg_change" data-name="3rd_color" style="isolation: isolate">
    <path d="M645.12,273.6H613.44L612,275c-.34,9.58-6.65,29-15.84,30.24a22.77,22.77,0,0,1-1.44-7.2c4.61-5.1,8.21-15.79,10.08-23h-8.64c-3.52,6.34-26.78,32.75-28.8,7.2,8.51-11.58,5.95-37.77,5.76-57.6l17.28-17.28c-2.64-13.78-1.46-28.74-1.44-44.64,14.2-8.06,48.25-6.95,69.12-7.2,1.38,2.54,1.81,2.42,2.88,5.76,7.36,9.59-2.3,22.89,1.44,36,1.82,6.39,6.67,17.58,8.64,23,7,19.24-6.67,66.07-14.4,72-3.55,2.72-7.43-.61-10.08,2.88-5,6.6-6.65,15.42-11.52,21.6-2.53-.91-1.4-.28-2.88-1.44-2.79-2.4-2.4-2.07-2.88-7.2C635.76,301.25,643.46,284,645.12,273.6Z" />
    <path d="M781.92,329.76h-5.76c-16.39-27.06-33.48-44-46.08-77.76-4.57-12.24-6.33-32.72,8.64-34.56,18.86,17.94,32.91,33.29,41.76,61.92,1.54,5,6.42,10.93,4.32,15.84-2.1,3.66.31,1.62-4.32,2.88a27.81,27.81,0,0,0-5.76-4.32v2.88C783.88,304.39,782.5,315,781.92,329.76Z" />
    <path d="M858.24,234.72c5,1.55,7,3.74,8.64,8.64,5.54,7,1.57,20.62,0,27.36-1.06,4.55,1.73,9.46,0,15.84-2.83,10.45-7.42,20.93-10.08,30.24h-2.88c.55-4,2.26-5.05,2.88-7.2,1.33-4.64-1-10.35-1.44-13C854.11,288.18,855.87,241.8,858.24,234.72Z" />
    <path d="M498.24,282.24h38.88c13.38,3.69,18.53,12.41,27.36,17.28l21.6,4.32c18.18,7.11,44.27,38.08,40.32,61.92h-7.2c-8.48-12.88-21.21-19.57-31.68-30.24-61.69-1.23-137.59,30.67-136.8,89.28-4.44,2.8-4.94,4.16-13,4.32-2.82-3.62-5.36-3.63-7.2-8.64-10.55-16.74-.35-76.55-17.28-83.52-5.28-4.22-11.84-3.33-18.72-2.88-1.38-2.54-1.81-2.42-2.88-5.76h1.44c3.74-6.08,12.57-6.33,18.72-10.08,16.28-9.93,37.82-19.62,56.16-27.36C477.18,287,490.49,287.85,498.24,282.24Z" />
    <path d="M554.4,524.16c11.68,5.29-1.1,30.51,2.88,43.2,1.14,3.64,6.37,5.34,4.32,8.64-1.55,1.08-1.36.87-4.32,1.44C551.43,566.08,548.75,540.56,554.4,524.16Z" />
    <path d="M525.6,568.8c11,1.85,8,8,14.4,13l8.64,1.44c6,2.65,11.18,9.23,17.28,11.52,8.87,3.33,23.43,1.36,34.56,1.44,0-12.81-5.16-13.74-7.2-23a20.46,20.46,0,0,1,5.76-1.44c3,4.88,5.44,8,13,8.64,0,0,31.09,1.68,34.56,2.88,1.52.53,17.39,12.82,18.72,14.4,5.44,8.2,4.85,18.58,4.32,28.8-3.29,1.76-3.24,2.36-8.64,2.88-4.53-10.49-8.36-.6-17.28-4.32-7.58-3.16-11.78-16.76-18.72-21.6,0,33.15-43.81,90.41-83.52,63.36-8.91-6.07-31.05-60.57-18.72-76.32,4.45-3.81,8-5.17,10.08-11.52C528.69,576.33,526.66,574.7,525.6,568.8Z" />
    <path d="M822.24,573.12c8.06,0,14.84,1.45,21.6,2.88a26.07,26.07,0,0,0,4.32,5.76l1.44,15.84c-1.82,6.5-7.82,12.82-10.08,18.72-4.82,12.6-2.68,26.31-13,33.12-6.08,4.71-21.93.94-31.68,0-7.14-11-16.57-19.66-20.16-34.56,6.76-4.63,6.95-13.47,10.08-21.6,9.07-4.75,16.71-11,24.48-15.84Z" />
    <path d="M738.72,597.6c6.86,2.13,11,7.17,11.52,15.84-5.26,8-2.87,16.58-14.4,18.72l-5.76-5.76C718.36,612.63,730.34,606,738.72,597.6Z" />
    <path d="M560.16,810.72l-13,1.44c-2.86,4.5-8,7.84-10.08,13-2.63,6.3-.75,15.16-4.32,20.16-1.86,1.26-3.55,1.29-7.2,1.44-1.53-2.75-3.56-6.43-5.76-8.64-.44-19.69.86-34.73,8.64-46.08l13-10.08c13.38-19.08,21.3-43.19,56.16-36,4.92,7.87,11.45,17.34,14.4,27.36,4.76,16.19-4.09,32.28,0,50.4,11.08,49.08,7.66,95.37,69.12,95,8.76-15.87,15.8-31.85,27.36-44.64,2.53.91,1.4.28,2.88,1.44,4.84,1.9,4.17,2.22,4.32,8.64-5.82,8.1-2.7,20.12-5.76,31.68-7,26.33-18,65.59-44.64,72-6.09,1.46-11.57-3.4-15.84-4.32-10.71-2.3-14.62,9.05-24.48,1.44-12.32-13.35-35.25-15.26-46.08-30.24-16.79-23.23-17.09-65.39-13-92.16C568.26,847.37,560.62,827.43,560.16,810.72Z" />
    <path d="M589,754.56c1.47,1.16.39.51,2.88,1.44C590.37,754.84,591.45,755.49,589,754.56Z" />
    <path d="M1113.12,764.64h7.2l1.44,1.44,1.44,11.52-2.88,2.88L1116,779C1114.25,772.81,1111.48,770.77,1113.12,764.64Z" />
    <path d="M427.68,777.6c3,.54,2.77.35,4.32,1.44,3.6,3.61,6.32,8.06,10.08,11.52-.49,9-.85,21.12-11.52,23-1.47-1.16-.39-.51-2.88-1.44C415.89,792.55,425.46,796.18,427.68,777.6Z" />
    <path d="M576,784.8a18.16,18.16,0,0,0,1.44,5.76h1.44v-4.32Z" />
    <path d="M987.84,871.2c-1.33-20.53-23.71-39.3-36-50.4l1.44-4.32c6.17-4.12,8.42-6,20.16-5.76,4.72,6.93,12.66,11.91,17.28,18.72,6.34,9.35,9.36,19.73,15.84,28.8,5,6.94,14.44,14.3,17.28,23,6.43,19.75-5.74,41.28-14.4,47.52-9.08,6.55-36.19,15.42-54.72,10.08-6.29-1.81-9.8-7.52-14.4-10.08L913,921.6c-12.38-5.57-35.91-22.46-36-40.32,2.85-4.32,3.68-14.44,4.32-20.16,7-4.68,13.87-12,23-14.4,16.47-4.38,22.64,9.37,30.24,14.4C949.41,871,968.23,874.34,987.84,871.2Z" />
    <path d="M1134.72,894.24c3,.54,2.77.35,4.32,1.44,8.88,8.55,16,19.82,24.48,28.8h7.2c1.8-2.28,5.65-2.24,7.2-4.32,2.81-3.77-1.53-3.21,2.88-5.76v1.44c2.07,3.1,1.6,10.52,1.44,15.84-4.69,7.41-5.38,21.11-7.2,30.24-2.35,1.5-4.74,4.82-7.2,5.76-2.76,1.05-4.84-2-5.76-1.44-5.63,3.38-3.53,7-14.4,7.2-8.61-7.9-12.45,3-20.16,0-6.63-1.83-16-13.29-13-23,1.73-5.55,11.13-5.79,14.4-10.08,6.33-8.32,10.24-16.9,13-28.8C1137.19,907.92,1135,902.43,1134.72,894.24Z" />
    <path d="M390.24,908.64l8.64,1.44c2.54,10.74,3.81,32.09,8.64,41.76C412.6,962,423.94,963,424.8,977.76c-3.44,4.58-2.67,9.12-8.64,11.52-1.7,1.16-2.42,1.11-5.76,1.44-5.77-6.45-13.25-18.23-23-20.16C382.83,976,380.74,984,371.52,985c-4.81-1.39-4,3.45-8.64,4.32-4.18.79-5.23-3.8-7.2-4.32L345.6,986.4c-2-3.66-2.76-5-2.88-11.52,5.52-8,3.82-33.51,5.76-43.2a26.48,26.48,0,0,1,8.64-1.44c3,2.4,6,2.75,11.52,2.88C377.12,924.93,383.94,919.36,390.24,908.64Z" />
    <path d="M1025.28,1260h7.2c1.76,3.28,2.36,3.24,2.88,8.64-2.34,3.83-1.72,11-4.32,14.4-2.34,2.15-2.91,2.23-7.2,2.88-4-5.17-5.18-2.5-11.52-2.88a22.77,22.77,0,0,1-1.44-7.2C1015.41,1271.47,1021.73,1265.05,1025.28,1260Z" />
    <path d="M895.68,1290.24c4.76.16,8.75.78,11.52,2.88,19.68,7,33.65,28.78,41.76,47.52l5.76,17.28c3.39,5.17,9.4,10.36,11.52,17.28v33.12a161.49,161.49,0,0,1,4.32,34.56c-3.92,2.46-3.6,3.65-10.08,4.32-6.33-5.7-16.93-7-20.16-15.84-8.62-9.76-8.74-34.22-8.64-51.84,5.18-1.71,5.27-2.17,5.76-8.64-1.82-2-2-2.55-2.88-5.76-11.37-2.37-48.51-48.63-50.4-60.48,3.41-3.13,3.56-8.54,7.2-11.52C892.47,1292.14,894.57,1291.23,895.68,1290.24Z" />
    <path d="M1038.24,1422.72h14.4c6.09,10.92,5.65,26.62,10.08,40.32,1.13,3.5,4.88,9.42,5.76,13,1.54,6.18-2.09,10.81-2.88,14.4l1.44,17.28a38.68,38.68,0,0,1-20.16,5.76c-4.32-4.21-10.75-6.69-14.4-11.52-4-5.22-6.86-10-11.52-14.4C1020.21,1461.81,1026.24,1436.44,1038.24,1422.72Z" />
    <path d="M450.72,1516.32c6.54-.18,13.49.14,17.28,2.88,31.55,10.15,6.16,89.88-13,93.6-2.52-4.7-3-10.45-2.88-18.72-6.69-1.71-9.65-4-18.72-4.32-4,7.71-7.8,23.39-18.72,24.48-3.62-10.75-1.56-29.87-1.44-43.2,1.71-2.73,1.19-8.5,2.88-11.52,3.57-6.39,9.9-13.21,13-20.16l4.32-13c2.57-3.76,8.23-5.51,11.52-8.64C448.31,1517.48,449,1517.48,450.72,1516.32Z" />
  </g>
  <g id="_2nd_color" class="svg_change" data-name="2nd_color" style="isolation: isolate">
    <path d="M578.88,201.6a31.07,31.07,0,0,0-10.08,2.88L557.28,223.2c-3.23,10.23,3.05,20.27,4.32,27.36l-2.88,25.92c-4.94,3.36-5,6.33-13,7.2-10-6.43-35.5-.27-47.52,0a15.9,15.9,0,0,0-2.88-4.32c7-27-.31-69.1-13-86.4-4.61-6.31-15.43-7-18.72-14.4-6.58-9.19,1.26-41.14,7.2-49,2.63-3.47,9-4.88,11.52-8.64,3.76-5.57,5.39-16.33,7.2-23,2.29-8.49.26-34.07,4.32-40.32,2.64-7.49,9.13-7.44,13-13l7.2-17.28c35.67-2.82,76.55-2.83,118.08-2.88,2,7.75,6.58,10.43,10.08,15.84l8.64,23c7.54,12.19,18.55,23.42,24.48,37.44,5.23,12.37,8.39,43.87,4.32,61.92-1.36,6-4.85,20.15-4.32,25.92.76,8.26,5.43,16.22,7.2,23,3.85,14.79-.76,51.54-4.32,61.92h-2.88l-1.44-2.88c-9.33-12.8,4.64-31.54,0-47.52-1.93-6.66-11.1-11.08-8.64-21.6,1-4.28,6-9.2,7.2-13V110.88C666.71,90.26,650,76.93,642.24,59c-2.85-6.6-10.18-27.3-14.4-30.24h-50.4c-12.88,8.19-36.19-1.38-47.52,2.88L528.48,36c9.51,7,8.31,19.47,13,31.68,6.93,18.2,20.8,34.06,25.92,54.72,5.29,21.35-2.46,49.93,0,70.56C574.19,194.06,577.6,194.4,578.88,201.6Z" />
    <path d="M391.68,203c50.22-1.09,73.08-3,72,49H460.8v1.44L459.36,252c-4.8-3.21-4.6-5.31-13-5.76-11.68-7.55-26.68,7.42-36,8.64V252l-7.2-24.48c-7.17-2.92-17.44-5.35-20.16-13h1.44C386,208.7,388.86,207.26,391.68,203Z" />
    <path d="M721.44,240.48c13.55,9.25,11.8,25.59,18.72,41.76,7.93,18.52,24.92,30,30.24,51.84h-2.88c-1.53-1.91-20.34-18.25-21.6-18.72-2.75-1-7.09,3.48-11.52,1.44-2.9-1.34-3.77-6.09-5.76-8.64-11.5-14.77-24.33-14-24.48-43.2C711.85,260,718.87,250.45,721.44,240.48Z" />
    <path d="M956.16,275c18.08-.61,63.12,5.8,67.68,15.84v21.6l-8.64,25.92c-22.3,6.41-52.31,6.08-76.32,13-8,2.3-13.61,9.36-20.16,11.52-7.21,2.38-11.43-3.95-15.84-2.88-2,.5-2.73,3.44-7.2,4.32-5-8.28-9.79-12-10.08-25.92,15.76-10.29,23.73-30.72,38.88-41.76C934.64,289.24,949.1,285.45,956.16,275Z" />
    <path d="M699.84,316.8l5.76,2.88c-.91,2.53-.28,1.4-1.44,2.88-2.18,4.9-3.83,3.82-4.32,11.52h1.44c4.11-2.54,15.3-.25,23,0l1.44,2.88c2.92,3.49,3.71,11.36,2.88,14.4-5.26,19.27-35.49,14.12-51.84,10.08-3-4.72-10.73-13.95-5.76-21.6,3.14-10,12.22-14.84,18.72-21.6C693.94,318.33,697.63,318.31,699.84,316.8Z" />
    <path d="M848.16,332.64h5.76a108.79,108.79,0,0,0,14.4,17.28l-2.88,13c-8.74,4.49-24.74,8.68-25.92-5.76C845.34,350.92,845,341.92,848.16,332.64Z" />
    <path d="M905.76,349.92l-1.44,4.32h1.44V352.8C907.55,350.54,906.68,352.07,905.76,349.92Z" />
    <path d="M810.72,371.52H820.8c1.85,2.64,2.83,2.46,4.32,5.76,1.38,2,1.41,4.71,1.44,8.64l-1.44,1.44c-7,1-15.31,2.19-18.72,0-2.79-2.4-2.4-2.07-2.88-7.2Z" />
    <path d="M704.16,373c8.3.36,14.34,3,20.16,5.76-2.83,5.68-5.77,7.39-11.52,10.08l1.44,1.44c10.08,15.54,19.52,15.7,40.32,20.16,5.77,8.23,13,14.34,15.84,25.92,6.14,25.32-17.34,68-34.56,70.56-12.93-22.13-36.66-43.92-70.56-44.64l-1.44,4.32c-1.26,1.86-1.29,3.55-1.44,7.2,7.75,3.93,12.75,12.57,20.16,15.84l18.72,2.88c.41,3.81,1.19,3,8.64,2.88,3.17,3,5.31,2.47,7.2,7.2,1.08,1.55.87,1.36,1.44,4.32-13.88,8.36-30.4,20.93-38.88,34.56-6.6,10.61-5.17,29.57-17.28,34.56-15,14.73-66.6-10-77.76-15.84-1.17-14.92-11.47-13.92-13-28.8,6.69-3.12,15.26-5.78,21.6-10.08,9.82-6.66,34-42.1,37.44-54.72,6.09-22.23-10.71-41.81,2.88-63.36,8.62-13.67,26-13.2,41.76-20.16,2.8-1.24,6.06-6.17,8.64-7.2C691.61,372.79,698.81,377,704.16,373Z" />
    <path d="M881.28,380.16c38.09-.29,52.85,22.95,69.12,44.64,8.07,10.76,21.72,11.92,23,30.24-6.64,7.56-5.17,20.71-15.84,24.48-3.4,2.1-5.43.63-10.08,0-1.85,3-3,3.32-4.32,7.2-1.93,2.87-1.59,9.37-1.44,14.4h1.44v-1.44c4.4-4.28,5-7.42,13-8.64,2.73,4.66,4.18,6.27,4.32,14.4C953,515.2,951.61,525.05,936,527l-1.44-4.32c-10.3-13.86-2.14-42.51-7.2-61.92-6-23.16-26.46-33-30.24-56.16,4.31-2,5.92-3.25,5.76-5.76-1.36-5.05-3.81-9.67-8.64-11.52-2.77-1.87-9-2.47-13-2.88Z" />
    <path d="M1097.28,594.72c-15.52-.33-25,2.8-36,5.76-2.33,3.83-7.1,7.16-8.64,11.52-2.47,7,1.33,12.26-4.32,15.84-2.23,1.51-5.88,1.48-10.08,1.44-3.67-6.31-12-12.15-14.4-18.72-1.62-4.52.57-9.81-1.44-13-4-3.42-11.37-2.38-15.84-5.76-3.37-2.55-3.45-9.21-5.76-13-5-8.07-35.22-46.21-11.52-54.72,4,6,14.31,13.64,21.6,15.84l14.4-1.44c7.63,2.32,10.46,12.87,18.72,15.84V553c-6.45-8.36-7.22-27.88-7.2-41.76h2.88c5.31-4.09,16.74-6.25,24.48-7.2q5.82,12.13,11.52,25.92l2.88-1.44c7.45-12.53,12.49-22,10.08-41.76a15.9,15.9,0,0,0,4.32-2.88c2.53.91,1.4.28,2.88,1.44,12.19,8,34.9,43.63,28.8,69.12-2.59,10.81-10.32,17.59-13,27.36l1.44,23c-4.18,2.33-6.3,3.83-13,4.32l-1.44-4.32C1097.21,602.57,1097.24,598.92,1097.28,594.72Z" />
    <path d="M501.12,535.68h8.64L511.2,540c16.77,23.68-26.26,62-34.56,73.44-4.79,6.58-4.4,14.29-13,17.28.14-14.74-11.93-17.53-25.92-17.28-3.94,7.1-9.33,15.59-18.72,17.28-2.1-3.06-4.09-3.6-5.76-7.2-6.77-8.76-3.77-25.19-8.64-36-3.49-7.75-14.33-8-18.72-14.4l-4.32-14.4c-15.63-37.55,13.11-54.38,33.12-73.44,2.53.91,1.4.28,2.88,1.44,10,7.85,24.39,26.27,28.8,38.88,4.71,13.47,1.45,31,5.76,43.2h1.44c.73-15,5.48-28.89,8.64-41.76,3.53-1.22,8.9-1.5,14.4-1.44,3.15,4.47,6.53,8.87,13,10.08h7.2c2,1.31,1,4.18,1.44,7.2-6.41,6.92-9.12,19.55-13,28.8h2.88V568.8C495.25,561.39,500.2,548.92,501.12,535.68Z" />
    <path d="M875.52,488.16,895.68,491c4.81,7.27,9.56,10.76,10.08,23-9.25,13.91-9.88,39.61-28.8,43.2-7.27,4.64-39,5.64-50.4,5.76-4.48-7.55-10-12.26-11.52-23,2-3.08,2.14-8.73,4.32-11.52,11.27-10.7,23.21-22.81,36-31.68C860.91,493,870.48,492.63,875.52,488.16Z" />
    <path d="M473.76,586.08c-1.7,1.16-2.42,1.11-5.76,1.44V589h2.88v1.44c3.38-1,3.22-1.48,5.76-2.88C475.17,586.36,476.25,587,473.76,586.08Z" />
    <path d="M758.88,625c30,1.37,22.23,21.08,36,27.36H820.8c2.23-1.51,5.88-1.48,10.08-1.44C834,643.46,836,635,842.4,630.72c2.73-2.19,5.17-2.58,10.08-2.88l1.44,1.44c1.35,13.37,2.1,43.63-7.2,49-9.45,6.55-17.89-7.68-33.12-4.32-21.7,4.79-43.44,12.24-69.12,13-3.31-8.83-6.64-19.91-13-25.92l4.32-10.08c1.86-1.59,6-.78,7.2-2.88,2.62-4.44.09-9.28,2.88-13C749.09,630.85,755.6,629.52,758.88,625Z" />
    <path d="M640.8,648c6.86.16,10.35,1.62,15.84,2.88,3.49,7.74,11.26,19.94,7.2,30.24-2.26,5.73-9.62,10.43-11.52,15.84-2.87,8.16,2.85,14.62,0,20.16L635,734.4c-5.74,9.14-4,14.93-11.52,23-2.53-.91-1.4-.28-2.88-1.44-9.45-6.54-38.11-50.23-27.36-66.24C599.73,667.66,629.14,665.05,640.8,648Z" />
    <path d="M875.52,665.28h5.76c8.77,13.08,22.1,17.16,23,38.88-8.3,4.11-32.08,13-43.2,4.32-7-7.5-6-23.87-4.32-36h2.88c4.45-2.68,10.91.72,17.28,1.44V671C875.8,669.34,875.85,668.62,875.52,665.28Z" />
    <path d="M722.88,666.72c12,2.62,11.85,8.86,18.72,15.84.33,11.8-.91,20-4.32,27.36-15.14,1.73-34.67-2.72-56.16-2.88-.91-2.53-.28-1.4-1.44-2.88,2.82-12.76,7.87-33.34,23-34.56,1.86-1.26,3.55-1.29,7.2-1.44l2.88,7.2,1.44-1.44C717.69,672,720.64,670,722.88,666.72Z" />
    <path d="M846.72,705.6c-33-.08-62.37-1.38-74.88,18.72-9.74,15.65-.67,45.27-21.6,50.4v-2.88c-2.92-4.39.26-12.48-1.44-18.72-7.73-28.47,10.84-57.42,36-63.36,18.74-4.43,56.27-2,60.48,10.08C846.44,701.54,846.39,702.26,846.72,705.6Z" />
    <path d="M761.76,799.2l13,2.88c8.87,22.79,25.87,34.6,57.6,34.56,7.8,0,16.8.37,21.6-2.88,15.29-5.39,7.81-16.34,15.84-25.92v1.44c2.79,2.4,2.4,2.07,2.88,7.2C862,828.63,868.47,852.22,864,871.2c-3.38,14.35-9.69,24.71-14.4,36-4,9.67-1.58,19.33-11.52,23-7.81,7.31-38.23,4.94-46.08-1.44-6.26-6.28-22-41.68-18.72-56.16,1.64-7.15,8.24-13.44,5.76-24.48-1.23-5.46-2.71-16.92-5.76-21.6-5.5-8.45-12.14-10-13-24.48C761.48,800.61,760.83,801.69,761.76,799.2Z" />
    <path d="M514.08,819.36c5.77,3.47,4.77,12.31,4.32,21.6C541,870.9,504.68,926.8,489.6,951.84l-4.32-1.44c-6.48-16.55-.19-39.63,4.32-53.28C498.43,870.38,507.39,846.15,514.08,819.36Z" />
    <path d="M714.24,878.4c5.93,1.83,7.06,3.77,7.2,11.52,4.26,6.63-1.31,15.62,0,23,4,22.95,11.9,78.14-5.76,92.16l-1.44,1.44c-1.67-18.2-14.45-23.66-18.72-37.44-4.55-14.69,12.56-43.77,15.84-54.72Z" />
    <path d="M872.64,897.12h7.2c8,11.66,23.47,14.25,25.92,31.68-13.22,9.34-18.93,44.63-13,67.68,2.3,8.87,7.81,18.89,10.08,27.36,3.58,13.38-3.66,22.2-5.76,30.24-5.22,2.52-7.18,5-14.4,5.76-11.62,6-30.1-12.37-37.44-17.28-30.71-20.54-67.94-47.36-67.68-97.92L779,943.2c9.75-.81,32-5.82,43.2-1.44,4.12,1.61,8.69,5.66,14.4,7.2,6.48-9.82,17.41-10.06,30.24-7.2V931.68C871.79,923.62,869.39,905.38,872.64,897.12Z" />
    <path d="M1098.72,900c20.55-.18,33.24,11.14,33.12,31.68-10.52,6.83-18.08,15.7-30.24,21.6,4.49,10.59,9.56,26.59,17.28,34.56,12.14-17.54,34.64-4.61,49-20.16,2.53.91,1.4.28,2.88,1.44,2.58,3.21,2.88,6.91,2.88,13-4.9,3-9.72,8.49-15.84,10.08l-10.08-1.44-7.2,10.08H1130.4c-10.13,4.37-12.76,15.43-25.92,18.72-5.47-8.3-14.06-15.43-18.72-24.48l-4.32-17.28c-7.66-8.09-15.26.37-15.84-20.16C1077.63,938.8,1086.83,918.43,1098.72,900Z" />
    <path d="M419,904.32a80.6,80.6,0,0,1,17.28,1.44c4.47,7.47,10.55,16.89,13,25.92v20.16c2.05,6.07,15.6,23.27,8.64,38.88-2,4.39-8.22,8.45-10.08,14.4-4.24,13.54-1.5,25.66-14.4,30.24-9.05,5.8-17.12-5.23-23-7.2L383,1026.72c-13.41-3.92-32.53-13.23-33.12-30.24l4.32-1.44c9.16-7.57,20.8-4.61,30.24-1.44.31-8.69,2.94-12.37,11.52-13,5.92,9,18.53,15.76,30.24,18.72v-1.44c-4.37-5.16,2.06-21.86,2.88-33.12-13.61-9-20.55-22.36-20.16-46.08,1.51-2.07,2.24-5.65,2.88-8.64A36,36,0,0,0,419,904.32Z" />
    <path d="M1072.8,1123.2a49.09,49.09,0,0,1,11.52,1.44c5.29,11.46,6.62,26.66,2.88,43.2-.72,3.18-3.29,13.38-1.44,18.72,2,5.65,6.31,5.63,7.2,14.4-15.36,11.19-20.38,37.85-31.68,53.28-6,8.16-13.46,5-23,10.08-8.82,4.66-14.11,16.82-24.48,20.16h-23l-7.2,7.2c-12.69,5-71-4-83.52-7.2-2.88-4.17-8.63-9.26-10.08-14.4-1.51-5.36,2.08-11,2.88-14.4v-20.16c4.65-16.66,16.67-42.64,31.68-49h15.84c8.4,5.45,32.16,5.72,46.08,5.76l40.32,2.88,33.12-10.08v-7.2C1043.89,1164.8,1067.74,1130.79,1072.8,1123.2Z" />
    <path d="M535.68,1366.56c-.73-9.88-2.22-22.79-8.64-27.36-4.26-3.37-12.15-5-18.72-5.76-6.05,10.47-13.54,16.33-21.6,24.48-8-2.75-11.75-10.58-17.28-15.84-12.55-12-27-18.78-27.36-43.2,4.94-3.42,7.14-9,8.64-15.84-4.17-1.44-11.05-1.53-17.28-1.44-1.7-1.16-2.42-1.11-5.76-1.44-5-28.05,1.3-67.25,10.08-90.72,2.72-7.27,3.66-26,11.52-23,14.4,5.35,14.74,24.48,23,36,9.65,13.38,50.47,48.28,66.24,54.72,6.86,2.8,18.32,1.33,27.36,1.44,31.79.4,59.09-1.19,79.2-15.84,11-8,11-20.41,28.8-23,3,4.67,4.3,5.81,4.32,14.4-3.64,5.66-3.71,13.08-7.2,18.72-12.6,20.36-27.44,42.42-40.32,63.36-6.64,10.79-10.89,31.2-23,36-4.7,4.27-14,4.49-23,4.32v2.88l1.44,1.44C568.66,1362.83,554.71,1367.76,535.68,1366.56Z" />
    <path d="M882.72,1330.56c17.58,1,18.66,12,25.92,23,15.46,23.41,27.47,44.46,27.36,85l-1.44,1.44-13,1.44c-5.67-9.75-14.63-19.34-18.72-30.24l-5.76-27.36C891.32,1369.84,875.61,1352.8,882.72,1330.56Z" />
    <path d="M934.56,1465.92c24.15,1,34.14,21,49,31.68,10.25,7.36,22.61,2,34.56,7.2,13.81,6,16.28,22.76,24.48,34.56,2.65,3.81,12.93,6.53,14.4,8.64v23c-11.72,8.11-16.25,25.73-24.48,37.44-6.2,8.82-15.34,12.9-23,20.16-2.53-.91-1.4-.28-2.88-1.44-17.67-19.53-7.94-81.89-33.12-90.72L972,1535c-2.72,8.65-9.12,16.22-11.52,25.92-3.22,13,1.79,24.7-1.44,37.44-7.44,2.22-17.7,7.52-25.92,1.44-10.37-3.83-25-30.31-25.92-44.64,1.13-.94,19.46-33.9,20.16-36-1.29-5.48-12-10.53-13-23,4.78-5.63,2.9-16.65,7.2-23C924.28,1469.14,930.79,1468.83,934.56,1465.92Z" />
    <path d="M394.56,1578.24h5.76l1.44,1.44c.65,6.25,3.07,14.43,4.32,18.72v24.48c2.88,11.22,8.39,15.08,8.64,31.68-7.71,8.23-33.79,42.88-43.2,44.64-1-3-1.43-6.73-1.44-11.52,5-6.82,1.54-21,4.32-30.24,1.9-6.31,7-13.8,8.64-20.16,3-11.49-7.14-18.18-2.88-28.8l8.64-8.64Z" />
    <path d="M495.36,1597h5.76c4.57,9.35,8.67,12.24,8.64,27.36-4.89,7.69-4.44,33.28-4.32,46.08-5.94,3.78-27,27.89-27.36,36-5.24,8.63-1.25,17.48-14.4,18.72l-1.44-1.44L456.48,1692c-5.34-12.79-15.63-18.51-17.28-36,2.29-3.1,2-8,4.32-11.52l14.4-14.4c3.15-4.88,1.72-11.48,4.32-17.28,2.48-5.54,8.83-10.24,13-14.4s10.4-14.73,15.84-13c3.55,1.86,1-.62,2.88,2.88C495.3,1590.36,495.33,1593,495.36,1597Z" />
  </g>
  <g id="_1st_color" class="svg_change" data-name="1st_color" style="isolation: isolate">
    <path d="M665.28,181.44l-2.88-28.8a69.91,69.91,0,0,0-21.6-2.88c-19,11-55.29-14.62-56.16,17.28-2,3.36-.78,12.51-2.88,15.84-1.7,1.16-2.42,1.11-5.76,1.44-5-8-4.55-22-4.32-36-4.57-7.56-1.11-23.84-4.32-31.68C560,98.61,528,48.5,535.68,30.24c17.11-1.92,43.29.16,64.8,0,7.82-.06,17.15-3.68,23,0,12.59,4.58,17.08,24.54,23,36,7.23,13.9,21.76,28.15,25.92,43.2L671,180l-1.44,1.44Z" />
    <path d="M805,152.64c4.18-.09,7.87-.07,10.08,1.44,21,7.38,43.09,65.22,43.2,96.48L855.36,252c-1.73,1.21-1.32.52-4.32,1.44a26.48,26.48,0,0,0-1.44,8.64c3.76,3.39,1.48,5.19,2.88,11.52,7.26,32.72-10.59,32.93-17.28,50.4h1.44v1.44h2.88c2.76-5,5.64-9.52,11.52-11.52v2.88C844.36,324,839,336,833.76,344.16c-7.61-3.51-22.19-3.43-31.68-1.44-1.81,6.37-5.65,11.27-7.2,17.28l1.44,1.44,1.44-1.44,7.2-10.08c6.51,3,13.38,2.56,21.6,1.44a20.62,20.62,0,0,0,1.44,7.2h1.44c.93-7.3,3.54-10.93,11.52-11.52l1.44,1.44c-4.25,9.36-10.18,17.08-14.4,25.92-6.53-2.13-7-5.17-15.84-5.76-4.3,7.48-8.63,5.85-8.64,18.72l-1.44,1.44-1.44-1.44c-6.48-4.44-8.69-14.29-15.84-17.28-5.68-3.71-10,.43-14.4-1.44C764.82,365,756,356,754.56,348.48H756l15.84,14.4v-5.76c-8.33-5.2-13.15-11.9-13-25.92h1.44c5.26,5.38,14,3.93,20.16,8.64,5.31,4,6.91,11.8,13,15.84V352.8c-4.6-5.89-11.82-13.48-13-21.6,2.34-3.83,1.72-11,4.32-14.4,1.7-1.16,2.42-1.11,5.76-1.44,3.24,5.32,5.76,8.33,14.4,8.64v-1.44c-15.14-9.48-12.38-14.77-15.84-36-.65-4-3-3.7-1.44-7.2,4.75-9.36,12.57-7.42,13-23a15.9,15.9,0,0,1-4.32-2.88c-5.43,2.59-8.19,5.07-15.84,5.76-7.29-8.42-17.16-18-23-27.36-7.82-12.47,5-6.22-11.52-14.4L743,213.12c-8-3-11.27,4.09-15.84,5.76v-1.44c-1.08-1.55-.87-1.36-1.44-4.32,3.2-4.77,2.47-10.79,4.32-17.28,5-17.61,7.93-27.11,21.6-36,3.7-2.41,12.06-9.81,21.6-5.76l5.76,5.76c8.55,3.38,20.14.45,28.8,0V158.4C805.21,156.14,805.83,157.13,805,152.64Z" />
    <path d="M407.52,269.28h13c4.76,9.92,13.83,9.24,28.8,8.64,4.2-2.94,11.57-3,18.72-2.88,3.35,4.92,7.21,5.8,8.64,13-24.27,8.86-46.89,20.18-67.68,31.68-10.3,5.7-23,3.33-23,20.16l1.44,1.44c26.89-.81,27.05,13.47,25.92,40.32,3,4.25,5.89,19.91,2.88,24.48-1.25,4.25-2,5.45-5.76,7.2-6.25,3.37-23.27-6.67-28.8-10.08v2.88h2.88c6.22,6,14.18,7.94,21.6,13,13.1,8.86,19.66,22.74,41.76,23,1.76-3.29,2.36-3.24,2.88-8.64,4.4-7.18,2-31,7.2-40.32,17.76-32,81.16-59.14,129.6-59,16.07,21.88,34.78,25.16,34.56,64.8-9.47,16.54,3.23,39.69-24.48,38.88-2.77-5.18-3.05-12.67-2.88-21.6h-1.44c-2.65-1.78-8.21-1.57-13-1.44-5.49,3.47-17.24,3.46-23,5.76-2.49,6.49-9.24,27.27-5.76,33.12,4,5.28,23.65,17.55,30.24,14.4,7.89-2.85,8.28-9.61,17.28-11.52l1.44,1.44a101.85,101.85,0,0,1-7.2,23c-2.68,1.19-12,1.47-14.4,2.88-6.49,3.8-10.8,13.37-18.72,15.84-10.09,3.15-69,1.65-76.32-2.88-3.4-2.11,1-4-7.2-5.76-2.92,3-4.24,3.82-10.08,4.32-6.51-10-16.08-19.22-23-28.8-1.82-2.5-1.93-6.86-4.32-8.64-6.24-4.65-15.19-4.45-21.6-8.64-6.22-4.06-9.61-11.66-17.28-14.4v15.84c-1.87,3.63-1.85,12.12-1.44,17.28H396c-3.25,2.35-15.46,2.31-18.72,0-8.71-3-32.56-26.21-36-34.56-4.45-10.81-3.94-53.48-1.44-64.8,3.1-14-1.78-32.42,1.44-37.44,1.55-1.08,1.36-.87,4.32-1.44,2.72,2.26,3,2.72,5.76,1.44,19.45-6.41,14.88-25.46,18.72-47.52C379.77,279.51,401.71,277.94,407.52,269.28Z" />
    <path d="M1023.84,288c17.35.29,53.86,11.88,60.48,21.6,7.38,10.84,7.77,24.58,13,37.44,6.42,15.89,18.33,37.83,14.4,59-5.49,2.25-9,1.67-15.84,2.88-.13,18.07-9.89,24.21-17.28,34.56-6.19,8.67-16.09,27.94-24.48,33.12s-16.24,6-25.92,10.08c-6.65,2.78-9.86,6.81-20.16,7.2-7.75-6.46-14.46-12-21.6-18.72v-8.64a15.9,15.9,0,0,0,4.32-2.88c10.36,3.36,9.75,9.94,25.92,10.08,8.1-11.47,27.17-11.18,27.36-30.24-3.38-5.54-2.22-20.55-4.32-25.92-11.51-3.87-31.94-1.56-46.08-1.44l-1.44,1.44c-.12,9.73-2.69,11.08-7.2,15.84-2.53-.91-1.4-.28-2.88-1.44-9.65-3.62-6.6-14.42-14.4-18.72-8.56-7.76-21.49-5.2-33.12-7.2-5.41-9.06-17.29-17.28-18.72-28.8,3.38-2.84,4.67-7.91,5.76-13,13.47-8.1,33.09-14.37,50.4-18.72L983.52,347c6.66-1.13,21.68-3.42,27.36-7.2,9-8.83,15.69-30.83,15.84-47.52A16.7,16.7,0,0,1,1023.84,288Z" />
    <path d="M938.88,301a55.4,55.4,0,0,1,13,1.44c2.37,4.07,3.76,4.93,4.32,11.52-9.9,9.64-13.29,24.67-21.6,36-3.7,5.05-11.63,8-15.84,13-11.94-.4-16,1.07-25.92,2.88-1.76-3.29-2.36-3.24-2.88-8.64,2.81-2.19,3.2-3.13,4.32-7.2-3.21-2.36-4.33-2.46-2.88-5.76C897.56,322.16,922.78,313.69,938.88,301Z" />
    <path d="M725.76,383c21.57,0,36.47,10.55,51.84,15.84h8.64c2.68.92,7,4.9,10.08,5.76H813.6c16.06,5.18,14.39,8.92,36,4.32-1.9-4.94-2.25-6.5,2.88-8.64,3-2.06,9.72-.91,13-2.88l8.64-10.08c9.52-5.72,23,.89,25.92,7.2,1.08,1.54.87,1.36,1.44,4.32-3.65,2.15-4.55,2.17-5.76,7.2,8.76,4.73,6.72,11.5,11.52,20.16,10.07,18.19,32.76,56.94,14.4,80.64-1.86,1.26-3.55,1.29-7.2,1.44l-2.88-8.64c-3.18.75-2.86,1.62-5.76,0-3-3.5-2.69-7.76-7.2-10.08-23.31-18.37-54.1,21-70.56,24.48-2.81-5.46-4.13-11.54-11.52-13-1.47,1.16-.39.51-2.88,1.44-1.83,6.2.21,11.59-2.88,15.84-4.68,3.62-39.65-5.62-53.28-4.32L756,509.76c-4.18-7,2.18-18,4.32-24.48,5.89-17.94,17.39-30.91,10.08-54.72-11.19-36.45-38-19.48-54.72-43.2C719.79,386.55,723.26,385.42,725.76,383Z" />
    <path d="M479.52,492.48c2.63,2.26,2,1.27,2.88,5.76-2.74,1.93-1.26,1.85-5.76,2.88l-1.44-4.32h1.44C477.93,493.65,477.88,494.72,479.52,492.48Z" />
    <path d="M718.56,636.48h-8.64c-5.81-7.64-15.45-12.88-21.6-20.16-7-8.25-12.35-18.52-20.16-25.92,10.26-32.43,21.59-84.07,67.68-83.52,1.47,2.94,2.74,6.91,5.76,8.64,3.14,1.89,8.34,0,13,1.44,13.58,4.28,27.31,12.3,41.76,15.84,3.06,7,6.28,13.91,11.52,18.72,0,12-4.21,18.59-8.64,25.92-22.51-10.63-44.12,4.23-59,14.4L734.4,599c-8.33,3.45-22-7.64-28.8,5.76-1.26,1.86-1.29,3.55-1.44,7.2C710.14,616.53,717.2,627.76,718.56,636.48Z" />
    <path d="M924.48,515.52h5.76c2.75,4.69,5.32,11.49,7.2,17.28,12.35,38-19.49,47.75-33.12,67.68-6.44,9.41-4.27,21.9-13,28.8-4.35,3.14-6.73,1.76-14.4,1.44a20.46,20.46,0,0,1-1.44-5.76c10.57-10.05,17.84-25.77,14.4-41.76-5.93-3.13-13.55-4.06-15.84-10.08,1.16-1.7,1.11-2.42,1.44-5.76,8.26-6.23,12.52-13.08,18.72-21.6C902.87,533.9,916.77,529,924.48,515.52Z" />
    <path d="M351.36,560.16A157.46,157.46,0,0,1,384.48,563c2.34,4.56,4.59,5.58,5.76,11.52-3.29,1.76-3.24,2.36-8.64,2.88-4.43-3.21-13.09-4.12-20.16-4.32L360,577.44c-7.62,10.48,2.11,41.23,10.08,47.52,5.64,4.45,14.58,4.29,20.16,8.64s1,8.89,4.32,15.84c3.82,7.91,18,12,23,20.16,6.13,9.78,5.67,27,13,36,4.73,5,9.81,6,20.16,5.76,2.46-3.92,3.65-3.6,4.32-10.08-5.82-9.18,5.51-38,17.28-38.88L483.84,684c8.51,28.2-9.57,53-17.28,70.56-4.41,10-6.95,29.29-17.28,33.12v-1.44c-2.34-1.94-1.61-.92-2.88-4.32,1.64-2.43,1.53-7,1.44-11.52-3.53-1.22-8.9-1.5-14.4-1.44a114.29,114.29,0,0,1-11.52,23l-4.32,1.44c-3.82,7.31,9.72,20.18,11.52,24.48,2.47,5.91-1.65,39.26-2.88,43.2-3.51,11.26-16.76,13.44-23,21.6-8.66,11.26-6.93,32.08-25.92,33.12-7.31-11.26-18.67-18.54-21.6-34.56-.91-5,1.44-14.54,1.44-21.6,0-28.78,1-58.87-7.2-79.2L345.6,779c-5.49,7.86-11.52,7.4-11.52,21.6,13.28,14.37.25,59.72,7.2,82.08,2.9,9.33,10.72,11.59,11.52,24.48a20.46,20.46,0,0,1-5.76,1.44l-13-15.84a99.46,99.46,0,0,0-2.88-23V809.28c-4.93-15.42-17.37-29.37-21.6-44.64-3.79-13.71,6-41.93,8.64-51.84,2.14-8.09-2.51-36.51-4.32-44.64C311.4,656.87,315,643,316.8,635V612C324.57,583.33,333.2,577.39,351.36,560.16Z" />
    <path d="M1114.56,593.28c19.37,3.31,16.54,16.71,23,33.12,4.76,12,11.85,27.27,15.84,41.76l1.44,27.36c1.52,5.46,12.81,38,15.84,41.76,1.43,1.78,4.66,1.76,5.76,4.32,2.36,5.5.68,8.81,2.88,14.4,2.05,5.21,8.34,10.41,10.08,15.84,7,21.85-11.37,36.91-7.2,54.72,1.27,5.41,5.8,10.9,7.2,15.84l1.44,24.48c2.48,9,7.92,15.69,8.64,27.36-7.87,6.76-5.73,17.94-20.16,18.72-8-15.08-22-37.57-38.88-43.2l-15.84,1.44c-6.11-1.4-14.23-6.06-21.6-8.64-14-25.34-22.88-56.66-37.44-80.64l-5.76-15.84c-2.9-4.39-8.65-5.49-13-8.64-12.41-9.07-49.26-51.31-54.72-66.24-4.91-13.42,13-60.74,15.84-74.88,3.48-1.88,4.08-2.59,10.08-2.88,3.27,5.88,6.77,16.62,11.52,21.6,3.57,3.75,8.74,5.41,11.52,10.08l4.32,14.4c8.33,7.6,20.71,9.32,30.24,15.84s8.66,22.65,23,24.48c5.42-4.92,8.52-3.38,8.64-14.4,4.48-7.58.16-21,2.88-30.24,2-7,9.74-17.43,14.4-23l-4.32-18.72c-3.91-7.4-9.39-4.61-10.08-17.28A15.9,15.9,0,0,0,1114.56,593.28Z" />
    <path d="M800.64,705.6c15.73.33,33.12.42,47.52,1.44,3.29,5.26,9,9.9,11.52,15.84,2.41,5.78.94,12.91,4.32,17.28.32-12,5.91-15.31,10.08-23,13.14-1.91,30.94-13.4,46.08-10.08C950.54,713.69,967.1,767.69,959,805c-3.66,2-5,2.76-11.52,2.88-2.26-1.79-.73-.92-2.88,0-5.23,9.5,3.62,18-11.52,18.72-2.08-3.47-14.61-10.28-15.84-8.64-7.32,4.86-13.52,6-27.36,5.76-2.21-2.23-6.88-3.21-8.64-5.76-2-3-10.27-27.82-11.52-31.68-2.26-7-.65-16-4.32-21.6.24,12.91,3.68,18.37,5.76,25.92,3.63,13.18-15.92,34.37-21.6,40.32-48.3.84-59-7.57-77.76-36-6-.31-10.1,0-18.72,0-3.43-5.29-5.59-6.4-5.76-15.84,4.4-2.34,10.34-3.78,15.84-5.76-.06-15.42,10.27-51.17,18.72-57.6C787.61,711.35,795.05,710,800.64,705.6Z" />
    <path d="M669.6,708.48c36.57-1,64.42,6.75,72,33.12L743,773.28c5.41,13.24-10.09,63.34-33.12,63.36-1.47-1.16-.39-.51-2.88-1.44-.51-3-1.36-8-2.88-10.08-.57,9.65-1.79,14.57-13,14.4-1.39-3.46-2.47-8.17-5.76-10.08-2.27.95-3.64-2.75-7.2-1.44l-1.44,4.32c-3.17,2.81-8.55,2.74-14.4,2.88-6.43-5-15.57-6.23-20.16-13-12.16-17.84-22.58-60.45-8.64-83.52,3.78-6.26,11.22-17.5,17.28-21.6C656.69,713.19,664.24,712.67,669.6,708.48Z" />
    <path d="M864,756v2.88h1.44V756Z" />
    <path d="M551.52,812.16h5.76l1.44,1.44c0,18.26,2,42,5.76,59v47.52c3.31,13.71,19,47.06,28.8,53.28l14.4,2.88c7.35,2.72,20.07,17.07,31.68,13l2.88-4.32c8.51-3,18.13,6.37,28.8,2.88,8.68-2.84,15.93-12.48,21.6-18.72,2.53.91,1.4.28,2.88,1.44,14.42,11.34,20.12,48.58,10.08,67.68-12,22.79-34.86,39.36-49,60.48-17,25.53-27.82,55-36,89.28-6.48,3.81-10.35,7.84-20.16,8.64-1.33-3.84-1.51-10-1.44-15.84,4-6.33,8-40.18,8.64-49-12.17-6.16-19.22-12.42-36-11.52-3,4.85-7.71,8.72-10.08,14.4-5.88,14.09-2.6,48.48-20.16,50.4-4.4-3.84-12.41-3.68-17.28-7.2-3-4.63-2-12-4.32-17.28-4.25-9.69-14.76-19.16-17.28-30.24-2.91-12.8,9-27.68,4.32-43.2-1.44-4.8-7.07-6-8.64-10.08l-1.44-15.84c-1.65-6.23-5.65-13.1-7.2-18.72-3.88-14.1-1.23-24.31-4.32-38.88-1.41-6.64-4.46-25.89-1.44-34.56,8.49-24.36,28.43-44.37,37.44-69.12,5.59-15.33,10.23-29.73,14.4-44.64,3.13-11.2.46-25.21,5.76-34.56Z" />
    <path d="M1111.68,846.72v2.88h1.44v-2.88Z" />
    <path d="M364.32,848.16c-.23,8-2,23.58,1.44,28.8C366,869,367.75,853.38,364.32,848.16Z" />
    <path d="M905.76,930.24c6.31-1.19,13.11-7.74,23-4.32,3.68,1.27,6.76,6.94,10.08,8.64,7.94,4.07,21.71,5.24,30.24,7.2,15,3.44,24.36-4.3,38.88-4.32,1.49-8,11.64-20.12,18.72-21.6l1.44,1.44a291.17,291.17,0,0,0,5.76,36v21.6c.44,2.15,2.63,8.58,1.44,13-1.73,6.38-6.95,12.11-8.64,18.72-5.26,20.59,2,50.52-2.88,69.12v34.56c-1.43,4.29-6.25,6.86-8.64,10.08-3.17,4.27-3.54,7.67-8.64,10.08v-5.76c8.92-8.26,13.19-16.68,13-34.56h-1.44v1.44c-1.78,2.65-1.57,8.21-1.44,13-11.14.41-7.6,2.83-17.28,4.32l1.44-23c2.64-1.85,2.46-2.83,5.76-4.32,5.24-3,7.13,1.54,13,2.88v-15.84c-10.68,1.27-14.88,6.9-24.48,8.64-1.55,13.31-5.47,24.94-5.76,40.32-10.29,7.49-12.06,18.34-30.24,18.72-13.58-10.24-36.5-9.25-50.4-18.72-8.85-6-11.11-18.5-17.28-27.36-6.54-9.39-20.13-16.44-24.48-27.36l1.44-1.44c8.57.14,18-.12,24.48-1.44,3-4.92,8.43-10.16,10.08-15.84,5.53-19-5.59-58-11.52-67.68-6.31-10.3-19.92-21.14-18.72-34.56.67-7.48-5.65-8.24-7.2-13-2.94-9,5.08-25.72,8.64-30.24,1.7-1.16,2.42-1.11,5.76-1.44C888.49,908.82,905.73,909.73,905.76,930.24Z" />
    <path d="M882.72,1179.36l-1.44,10.08h1.44c2.26-2.63,1.27-2,5.76-2.88l13,17.28c1.59,6.83-5.41,9.55-7.2,13-2.75,5.24-.21,20.26-2.88,24.48-2.18,3.45-9.33,5.43-11.52,11.52-4.85,13.52,2.17,24,2.88,34.56-6.17,5.25-4.19,10.91-15.84,11.52-22.9-23.64-54-52.83-43.2-100.8,3.84-17,1.22-40.55,15.84-46.08v1.44c1.08,1.54.87,1.36,1.44,4.32-2.55,2.76-2.73,4.52-2.88,10.08,24.68,12.54,5.66,21.89,15.84,38.88-.46-12.76.09-23.7,5.76-30.24,2.65-1.78,8.21-1.57,13-1.44C875.56,1178.09,876.88,1178.86,882.72,1179.36Z" />
    <path d="M485.28,1163.52h7.2v2.88c4.85,7.07,3.08,24.55,2.88,36a26.07,26.07,0,0,0-5.76,4.32c-2.53-.91-1.4-.28-2.88-1.44-5.93-2.36-6.19-7.39-10.08-11.52C476.37,1179.46,481,1173.23,485.28,1163.52Z" />
    <path d="M619.2,1202.4c3,.54,2.77.35,4.32,1.44,4.27,5.76,3.15,22.11,5.76,28.8,6.08,1.74,10,0,11.52,7.2-1.16,1.47-.51.39-1.44,2.88-1.8,1-4.06,3.68-5.76,4.32-2.78,1-4.8-2-5.76-1.44-5.54,3.2-1.94,7.62-11.52,8.64-2.26-6.64-1.55-18.43-1.44-27.36C618.09,1221.61,617.05,1207.35,619.2,1202.4Z" />
    <path d="M1035.36,1283c4.73,1.33,6.94,2.68,8.64,7.2,1,2.49,2.46,15.89,1.44,24.48-.91,7.61-3.32,43.94,0,59,2.88,13.08,8.08,30.21,5.76,43.2-3.8,1.81-14.34,2.57-17.28,5.76-12.06,16.22-8.48,47-18.72,64.8l-1.44-1.44c-7.15-5-8.93-15.1-15.84-20.16-9.77-7.15-20.71-5.37-25.92-17.28-8.93-20.41-1.08-63.7-8.64-86.4-6.08-18.25-23.85-27.35-24.48-51.84,4.06-3.25,5.45-9,10.08-11.52,5.73-3.56,16.7.58,24.48-1.44,4.25-1.1,10.77-5.49,17.28-4.32,3,.55,9.47,4.84,14.4,2.88l4.32-5.76c5.59-2.82,11.11-.12,18.72,0Z" />
    <path d="M578.88,1368l1.44,11.52c5.39,1.31,6.08,1.33,7.2,7.2-7.85,5.48-11.68,13.8-17.28,21.6-9.47,13.19-21.61,26.42-30.24,40.32a116.23,116.23,0,0,0-11.52,25.92v10.08c-1.83,5.44-7.86,12.15-10.08,17.28-5.82,13.44-6,24.59-11.52,38.88-2.72,7.07-10.26,11.72-14.4,17.28-3.59,4.83-4.36,10.22-10.08,13v-8.64c7.8-9.42-.28-34-5.76-40.32-8.34-8.18-25-5.2-38.88-4.32-5.24,9.89-15.75,41.89-27.36,43.2l-2.88-30.24c-1.76-4.1-6.56-9.21-4.32-18.72,2.58-11,8.73-21.3,11.52-31.68V1453l8.64-28.8c1.43-6.06.5-15.84,1.44-20.16l1.44-50.4c-.85-5.55-6.5-6.47-2.88-13,2.75-8.17,11.71-18.31,17.28-24.48,2.53.91,1.4.28,2.88,1.44,9.75,4.76,21.81,37,33.12,44.64,8.34,5.65,15.77,4.67,17.28,17.28-2.82,4.18-1.12,22.52,0,24.48l1.44,4.32,10.08,1.44c9.39-10.16,19.95-21.25,27.36-33.12C549.06,1379.94,562.43,1369.69,578.88,1368Z" />
    <path d="M501.12,1352.16c9.11.08,12.79,2.58,20.16,4.32,2.18,4,2.94,7.15,2.88,14.4-7.28,8-10.39,22-24.48,23-1.12-3.23-1.47-7.82-1.44-13C502.64,1373.22,497,1363.57,501.12,1352.16Z" />
    <path d="M1078.56,1579.68h13c11.16,15.43,58.24,43.9,59,61.92,4.41,5.92,2.22,15.12,1.44,23l-1.44,1.44c-34.6,3.08-56.75-11.66-83.52-20.16h-14.4c-9-2.57-34.4-15.18-38.88-18.72-1.08-1.54-.87-1.36-1.44-4.32,7.35-5,11.51-13.8,21.6-15.84,3,4.76,5.43,6.7,13,7.2C1054.3,1599.77,1069.85,1592.26,1078.56,1579.68Z" />
    <path d="M1025.28,1618.56v2.88h2.88V1620Z" />
    <path d="M426.24,1670.4c10.72,4.42,11.57,10.85,17.28,20.16,2.81,4.58,9.49,7.13,11.52,13,1.33,3.83,4.28,26,2.88,30.24-2.87,8.74-22,41.37-28.8,46.08-13.19,11-42.78-1.56-46.08-11.52-1.85-2.74-6.44-13.89-5.76-17.28.3-1.48,3.27-.65,2.88-4.32-.1-.93-3.89-8.27-4.32-10.08-6.92-29.18,13.3-48.43,27.36-57.6C410,1674.61,419.11,1674.91,426.24,1670.4Z" />
  </g>
  <g id="shadows">
    <image id="Layer_1_Image" data-name="Layer 1 Image" width="1027" height="1256" transform="scale(1.44)" xlink:href="mr_robot1.png"/>
  </g>
</svg>
